<svg xmlns="http://www.w3.org/2000/svg" width="1535" height="1063" viewBox="0 0 1535 1063">
  <metadata><?xpacket begin="﻿" id="W5M0MpCehiHzreSzNTczkc9d"?>
<x:xmpmeta xmlns:x="adobe:ns:meta/" x:xmptk="Adobe XMP Core 5.6-c145 79.163499, 2018/08/13-16:40:22        ">
   <rdf:RDF xmlns:rdf="http://www.w3.org/1999/02/22-rdf-syntax-ns#">
      <rdf:Description rdf:about=""
            xmlns:xmp="http://ns.adobe.com/xap/1.0/">
         <xmp:CreatorTool>Adobe Photoshop CC 2019 (Windows)</xmp:CreatorTool>
      </rdf:Description>
   </rdf:RDF>
</x:xmpmeta>
                                                                                                    
                                                                                                    
                                                                                                    
                                                                                                    
                                                                                                    
                                                                                                    
                                                                                                    
                                                                                                    
                                                                                                    
                                                                                                    
                                                                                                    
                                                                                                    
                                                                                                    
                                                                                                    
                                                                                                    
                                                                                                    
                                                                                                    
                                                                                                    
                                                                                                    
                                                                                                    
                           
<?xpacket end="w"?></metadata>
<defs>
    <style>
      .cls-1 {
        font-size: 250px;
        font-family: "Trebuchet MS";
      }

      .cls-1, .cls-2 {
        fill: #662483;
      }

      .cls-2 {
        fill-rule: evenodd;
      }
    </style>
  </defs>
  <text id="Schriftzug" class="cls-1" x="90.846" y="880.615">CDE Katalog</text>
  <path class="cls-2" d="M769.5,574a25,25,0,1,1-25,25A25,25,0,0,1,769.5,574Zm0-86.64a22.5,22.5,0,1,1-22.5,22.5A22.5,22.5,0,0,1,769.5,487.36Zm0-81.66a20,20,0,1,1-20,20A20,20,0,0,1,769.5,405.7Zm0-76.65a17.5,17.5,0,1,1-17.5,17.5A17.5,17.5,0,0,1,769.5,329.05Zm0-71.65a15,15,0,1,1-15,15A15,15,0,0,1,769.5,257.4Zm0-66.65a12.5,12.5,0,1,1-12.5,12.5A12.5,12.5,0,0,1,769.5,190.75Z"/>
  <path class="cls-2" d="M753.1,580.1a25,25,0,1,1-3.082,35.221A25,25,0,0,1,753.1,580.1Zm-55.691-66.37a22.5,22.5,0,1,1-2.773,31.7A22.5,22.5,0,0,1,697.411,513.726Zm-52.49-62.555a20,20,0,1,1-2.465,28.176A20,20,0,0,1,644.921,451.171Zm-49.27-58.718a17.5,17.5,0,1,1-2.157,24.655A17.5,17.5,0,0,1,595.651,392.453ZM549.6,337.566a15,15,0,1,1-1.849,21.133A15,15,0,0,1,549.6,337.566Zm-42.842-51.057a12.5,12.5,0,1,1-1.54,17.611A12.5,12.5,0,0,1,506.753,286.509Z"/>
  <path class="cls-2" d="M785.95,579.7a25,25,0,1,1-35.221,3.081A25,25,0,0,1,785.95,579.7Zm55.691-66.37a22.5,22.5,0,1,1-31.7,2.773A22.5,22.5,0,0,1,841.641,513.329Zm52.49-62.556a20,20,0,1,1-28.177,2.466A20,20,0,0,1,894.131,450.773Zm49.27-58.717a17.5,17.5,0,1,1-24.655,2.157A17.5,17.5,0,0,1,943.4,392.056Zm46.055-54.887a15,15,0,1,1-21.132,1.849A15,15,0,0,1,989.456,337.169Zm42.844-51.057a12.5,12.5,0,1,1-17.61,1.541A12.5,12.5,0,0,1,1032.3,286.112Z"/>
</svg>
